<?xml version="1.0" standalone="no"?>
<!DOCTYPE svg PUBLIC "-//W3C//DTD SVG 20010904//EN"
 "http://www.w3.org/TR/2001/REC-SVG-20010904/DTD/svg10.dtd">
<svg version="1.0" xmlns="http://www.w3.org/2000/svg"
 width="330.000000pt" height="124.000000pt" viewBox="0 0 330.000000 124.000000"
 preserveAspectRatio="xMidYMid meet">

<g transform="translate(0.000000,124.000000) scale(0.100000,-0.100000)"
fill="#000000" stroke="none">
<path d="M705 936 c-79 -25 -207 -101 -340 -201 l-70 -53 -60 9 c-100 15 -204
-10 -206 -49 -3 -49 22 -109 41 -97 6 3 0 19 -11 34 -45 62 16 99 139 86 l63
-7 -126 -124 c-72 -71 -123 -129 -119 -135 4 -7 24 6 53 33 66 64 87 83 170
151 l73 60 67 -16 c37 -9 92 -25 122 -36 l55 -21 -22 -98 c-12 -53 -23 -98
-23 -99 -1 -1 -13 2 -28 8 -20 8 -30 6 -42 -5 -13 -14 -12 -16 5 -21 62 -20
62 -21 54 -67 -15 -87 -20 -148 -12 -148 5 0 16 43 26 96 l18 95 57 -7 c150
-20 244 -1 257 52 15 59 -46 120 -188 190 l-56 27 25 71 c35 97 77 178 114
221 18 20 29 41 25 50 -6 18 -9 18 -61 1z m-35 -80 c0 -2 -11 -23 -24 -47 -13
-24 -36 -79 -51 -121 -15 -43 -30 -78 -34 -77 -3 0 -50 15 -105 33 l-98 32 48
35 c75 53 103 70 179 111 66 35 85 43 85 34z m21 -347 c119 -62 158 -120 104
-155 -37 -24 -92 -27 -174 -10 -41 9 -75 17 -77 19 -2 2 1 21 7 43 29 111 41
144 50 144 6 0 47 -19 90 -41z"/>
<path d="M464 726 c-38 -33 -38 -35 -21 -53 17 -17 19 -17 38 7 11 14 26 37
35 53 21 39 -2 36 -52 -7z"/>
<path d="M1021 928 c-20 -53 -121 -376 -121 -387 0 -8 12 -11 32 -9 29 3 33 8
51 61 l19 57 68 0 67 0 20 -57 c18 -56 20 -58 57 -61 33 -3 37 -1 32 15 -3 10
-34 104 -69 208 l-62 190 -43 3 c-36 3 -43 0 -51 -20z m59 -66 c0 -11 9 -45
20 -77 29 -83 28 -85 -30 -85 -59 0 -59 0 -28 105 21 71 38 97 38 57z"/>
<path d="M1320 740 l0 -210 30 0 30 0 0 168 0 167 49 -90 c26 -49 68 -124 92
-165 42 -70 47 -75 79 -75 l35 0 0 205 0 205 -30 0 -30 0 2 -160 3 -160 -43
80 c-23 44 -65 117 -92 163 -48 79 -51 82 -87 82 l-38 0 0 -210z"/>
<path d="M1700 920 c0 -28 1 -29 58 -32 l57 -3 3 -178 2 -178 33 3 32 3 2 175
2 175 55 3 c55 3 56 4 56 32 l0 30 -150 0 -150 0 0 -30z"/>
<path d="M2115 938 c-17 -48 -125 -395 -125 -401 0 -5 15 -7 33 -5 29 3 33 7
51 61 l19 58 70 -3 71 -3 16 -55 c15 -53 17 -55 53 -58 20 -2 37 -1 37 1 0 2
-23 76 -51 163 -28 87 -57 180 -65 207 -15 47 -15 47 -60 47 -27 0 -46 -5 -49
-12z m76 -143 c14 -46 24 -87 21 -90 -8 -8 -102 -6 -102 3 0 15 45 172 50 172
3 0 17 -38 31 -85z"/>
<path d="M2414 937 c-2 -7 -3 -100 -2 -207 l3 -195 115 0 115 0 0 30 0 30 -82
3 -83 3 0 174 0 175 -30 0 c-17 0 -33 -6 -36 -13z"/>
<path d="M2630 947 c0 -2 29 -58 65 -125 l65 -121 0 -86 0 -86 33 3 32 3 5 95
c5 94 5 96 65 200 33 58 62 108 63 112 6 13 -65 9 -75 -4 -6 -7 -25 -47 -44
-89 -19 -41 -38 -76 -43 -78 -5 -1 -24 32 -42 75 -19 42 -39 83 -45 90 -10 12
-79 21 -79 11z"/>
<path d="M3065 938 c-14 -39 -125 -397 -125 -402 0 -3 15 -6 33 -6 33 0 35 2
52 60 l18 61 71 -3 70 -3 16 -55 c15 -53 17 -55 54 -58 35 -3 37 -2 31 20 -4
13 -34 107 -67 211 l-60 187 -44 0 c-27 0 -46 -5 -49 -12z m76 -143 c15 -46
24 -87 21 -90 -8 -8 -102 -6 -102 3 0 15 45 172 50 172 3 0 17 -38 31 -85z"/>
<path d="M341 478 c-76 -158 -125 -318 -102 -332 5 -3 21 34 36 82 15 48 58
147 96 221 67 129 72 150 37 151 -4 0 -34 -55 -67 -122z"/>
<path d="M910 430 c0 -17 7 -20 40 -20 l40 0 0 -130 0 -130 25 0 24 0 3 128 3
127 43 3 c34 3 42 7 42 23 0 18 -8 19 -110 19 -103 0 -110 -1 -110 -20z"/>
<path d="M1170 300 l0 -150 90 0 c83 0 90 1 90 20 0 18 -7 20 -65 20 l-65 0 0
45 0 45 60 0 c53 0 60 2 60 20 0 16 -8 19 -57 22 l-58 3 0 40 0 40 58 3 c49 3
57 6 57 22 0 18 -7 20 -85 20 l-85 0 0 -150z"/>
<path d="M1410 300 l0 -150 25 0 c24 0 25 3 25 54 0 36 5 58 15 66 9 7 17 11
19 9 1 -2 20 -32 41 -66 32 -54 42 -63 67 -63 21 0 27 4 22 13 -5 6 -27 42
-51 79 -24 36 -43 71 -43 77 0 6 20 36 45 67 25 30 45 57 45 59 0 3 -13 5 -28
5 -24 0 -37 -12 -80 -72 l-52 -73 0 73 c0 70 -1 72 -25 72 l-25 0 0 -150z"/>
<path d="M1670 300 l0 -150 26 0 26 0 -4 115 c-1 63 -1 115 2 115 3 -1 33 -51
66 -113 56 -103 64 -112 93 -115 l31 -3 0 150 0 151 -26 0 -26 0 4 -110 c1
-61 0 -110 -4 -110 -5 0 -8 4 -8 8 0 4 -27 54 -60 110 -55 93 -63 102 -90 102
l-30 0 0 -150z"/>
<path d="M2019 420 c-85 -69 -67 -227 29 -267 123 -51 234 87 178 222 -32 76
-141 100 -207 45z m148 -49 c39 -58 24 -149 -28 -176 -40 -21 -57 -19 -90 14
-24 25 -29 37 -29 81 0 52 19 104 42 114 7 2 29 4 48 3 27 -2 39 -9 57 -36z"/>
<path d="M2300 300 l0 -150 25 0 c24 0 25 3 25 54 0 36 5 58 15 66 9 7 17 11
19 9 1 -2 20 -32 41 -66 32 -54 42 -63 67 -63 21 0 27 4 22 13 -5 6 -27 42
-51 79 -24 36 -43 71 -43 76 0 6 20 35 45 65 25 31 45 58 45 61 0 3 -13 6 -29
6 -25 0 -36 -11 -77 -71 l-49 -71 -3 71 c-3 68 -4 71 -27 71 l-25 0 0 -150z"/>
<path d="M2560 300 l0 -150 90 0 c83 0 90 1 90 20 0 18 -7 20 -65 20 l-65 0 0
45 0 44 57 3 c45 2 59 7 61 20 3 14 -6 17 -55 20 l-58 3 0 40 0 40 58 3 c49 3
57 6 57 22 0 18 -7 20 -85 20 l-85 0 0 -150z"/>
<path d="M2800 300 c0 -143 1 -150 20 -150 18 0 20 8 22 118 3 112 4 116 18
87 8 -16 38 -69 65 -117 44 -77 53 -88 78 -88 l27 0 0 150 0 150 -26 0 -27 0
7 -117 7 -118 -67 118 c-61 106 -70 117 -96 117 l-28 0 0 -150z"/>
<path d="M3080 430 c0 -17 7 -20 40 -20 l40 0 0 -130 0 -130 25 0 25 0 0 130
0 130 45 0 c38 0 45 3 45 20 0 19 -7 20 -110 20 -103 0 -110 -1 -110 -20z"/>
</g>
</svg>
