<?xml version="1.0" standalone="no"?>
<!DOCTYPE svg PUBLIC "-//W3C//DTD SVG 20010904//EN"
 "http://www.w3.org/TR/2001/REC-SVG-20010904/DTD/svg10.dtd">
<svg version="1.0" xmlns="http://www.w3.org/2000/svg"
 width="1000.000000pt" height="1336.000000pt" viewBox="0 0 1000.000000 1336.000000"
 preserveAspectRatio="xMidYMid meet">

<g transform="translate(0.000000,1336.000000) scale(0.100000,-0.100000)"
fill="#000000" stroke="none">
<path d="M4740 13348 c-551 -46 -1095 -255 -1545 -593 -586 -441 -993 -1089
-1135 -1805 -30 -150 -60 -417 -60 -527 l0 -63 -999 -2 -999 -3 1112 -1556
c3297 -4616 3880 -5429 3887 -5429 4 0 338 462 742 1027 404 566 1527 2137
2496 3493 l1761 2465 -1000 3 -1000 2 0 79 c0 95 -24 334 -46 451 -72 397
-224 780 -441 1110 -609 928 -1665 1441 -2773 1348z m620 -193 c528 -73 1019
-283 1417 -606 113 -92 338 -319 425 -429 374 -474 584 -1029 614 -1623 l7
-137 89 0 88 0 0 -62 c0 -87 -17 -273 -36 -398 -100 -668 -450 -1318 -950
-1761 -116 -104 -175 -151 -181 -146 -2 2 4 26 12 53 18 63 46 206 41 212 -3
2 -33 -20 -68 -50 -721 -610 -1693 -816 -2606 -554 -345 100 -720 298 -994
525 -54 45 -100 81 -102 81 -5 0 23 -147 41 -208 8 -30 13 -56 10 -58 -7 -7
-143 109 -256 219 -466 455 -766 1029 -870 1667 -20 121 -41 348 -41 437 l0
43 89 0 89 0 6 118 c39 708 304 1327 786 1835 51 54 145 142 209 195 461 387
975 600 1591 662 122 12 456 4 590 -15z m-2088 -5245 c388 -279 846 -456 1358
-527 188 -26 587 -23 777 5 522 78 955 255 1392 569 23 17 24 17 16 -7 -19
-67 -82 -214 -122 -289 -293 -549 -813 -919 -1413 -1005 -246 -35 -422 -30
-668 20 -561 114 -1056 493 -1311 1002 -58 116 -128 292 -116 292 2 0 41 -27
87 -60z"/>
<path d="M4735 12800 c-785 -91 -1462 -533 -1859 -1213 -200 -340 -326 -786
-326 -1148 l0 -79 -186 0 -186 0 7 -132 c35 -696 313 -1336 795 -1830 l130
-133 -8 70 c-9 90 -8 368 2 418 l7 39 57 -63 c382 -427 889 -703 1459 -795
133 -22 484 -30 626 -15 561 60 1081 307 1477 701 42 41 95 97 118 124 36 42
43 46 49 30 10 -25 10 -405 1 -464 l-8 -45 133 135 c141 145 245 274 349 435
264 408 421 897 444 1383 l7 142 -185 0 -185 0 -6 148 c-12 285 -80 569 -202
844 -309 693 -910 1200 -1644 1388 -190 48 -306 62 -556 65 -132 2 -271 0
-310 -5z m537 -276 c546 -69 1052 -344 1403 -765 297 -355 482 -821 502 -1266
l6 -133 135 0 135 0 -6 -147 c-19 -459 -193 -936 -479 -1318 l-73 -97 -22 113
c-12 63 -30 141 -40 173 l-18 60 -39 -55 c-117 -163 -297 -346 -468 -475 -730
-550 -1733 -580 -2503 -77 -209 137 -377 294 -533 496 -41 53 -79 97 -83 97
-9 0 -44 -132 -65 -243 l-16 -88 -46 58 c-297 380 -487 889 -509 1366 l-6 137
135 0 135 0 6 123 c32 624 341 1211 842 1600 314 243 658 387 1060 441 139 19
397 19 547 0z"/>
<path d="M4800 12260 c-765 -93 -1388 -602 -1618 -1321 -51 -158 -90 -396 -92
-561 0 -16 -13 -18 -137 -18 l-136 0 6 -128 c15 -284 95 -590 221 -840 60
-119 138 -244 146 -236 4 5 17 34 28 64 11 30 39 95 61 144 l42 88 50 -83
c231 -385 626 -695 1054 -828 697 -216 1435 -30 1944 489 93 95 206 241 266
343 21 37 42 67 46 67 7 0 86 -167 114 -242 10 -26 21 -46 25 -43 25 15 164
280 214 408 89 224 146 503 146 715 l0 82 -134 0 -133 0 -7 115 c-28 463 -221
897 -549 1227 -284 287 -632 468 -1037 539 -132 23 -402 33 -520 19z m-490
-1939 c-250 -99 -468 -241 -652 -423 -103 -102 -170 -184 -259 -320 -56 -86
-79 -115 -86 -105 -17 20 -89 187 -116 267 -55 160 -90 340 -103 523 l-7 97
659 -1 659 0 -95 -38z m2600 -13 c0 -146 -42 -376 -99 -548 -39 -116 -119
-300 -130 -300 -3 0 -23 29 -43 64 -51 86 -171 246 -248 329 -194 209 -478
391 -780 500 -8 3 281 6 643 6 l657 1 0 -52z"/>
<path d="M1590 2350 l0 -150 155 0 155 0 0 150 0 150 -155 0 -155 0 0 -150z"/>
<path d="M2070 2350 l0 -150 150 0 150 0 0 150 0 150 -150 0 -150 0 0 -150z"/>
<path d="M4830 2350 l0 -150 165 0 165 0 0 150 0 150 -165 0 -165 0 0 -150z"/>
<path d="M7605 2028 c-3 -11 -118 -608 -195 -1023 -11 -55 -55 -291 -99 -524
-45 -233 -81 -430 -81 -438 0 -10 34 -13 168 -13 l168 0 30 192 29 193 160 0
159 0 32 -190 c18 -104 33 -191 33 -192 1 -2 79 -3 175 -3 l173 0 -5 28 c-2
15 -18 97 -34 182 -16 85 -35 189 -43 230 -84 455 -295 1552 -300 1560 -10 16
-364 14 -370 -2z m230 -943 c25 -160 48 -302 51 -317 l6 -28 -107 0 -107 0 5
28 c3 15 27 158 53 319 27 161 49 291 51 290 1 -2 23 -133 48 -292z"/>
<path d="M0 1860 l0 -170 125 0 125 0 0 -830 0 -830 170 0 170 0 0 830 0 830
125 0 125 0 0 170 0 170 -420 0 -420 0 0 -170z"/>
<path d="M1490 1253 c0 -745 1 -782 20 -862 33 -136 103 -248 193 -310 135
-92 353 -104 513 -30 74 35 159 125 199 211 64 139 65 155 65 1004 l0 764
-175 0 -175 0 -2 -792 c-3 -759 -4 -795 -22 -832 -25 -50 -68 -76 -128 -76
-59 0 -99 31 -124 98 -17 44 -19 101 -22 825 l-3 777 -169 0 -170 0 0 -777z"/>
<path d="M3190 1030 l0 -1002 248 5 c274 5 313 11 439 72 128 63 221 165 265
293 19 56 23 88 23 192 0 106 -3 134 -23 186 -33 87 -100 167 -185 221 -40 25
-75 49 -80 53 -4 3 16 22 45 40 80 52 137 117 177 199 32 68 35 84 39 186 3
63 -1 135 -7 164 -37 175 -175 304 -386 361 -68 18 -117 23 -317 27 l-238 6 0
-1003z m461 659 c51 -18 97 -55 122 -102 18 -35 22 -57 22 -137 -1 -104 -18
-154 -72 -204 -32 -30 -102 -56 -150 -56 l-33 0 0 255 0 255 39 0 c21 0 53 -5
72 -11z m19 -830 c118 -53 174 -179 140 -318 -24 -101 -108 -172 -222 -187
l-48 -7 0 267 0 266 43 0 c23 0 62 -10 87 -21z"/>
<path d="M4830 1030 l0 -1000 170 0 170 0 0 1000 0 1000 -170 0 -170 0 0
-1000z"/>
<path d="M5832 1863 l3 -168 123 -3 122 -3 0 -829 0 -830 175 0 175 0 0 830 0
830 120 0 120 0 0 170 0 170 -420 0 -420 0 2 -167z"/>
<path d="M8970 1030 l0 -1000 175 0 175 0 0 268 0 268 35 99 c20 54 37 101 39
103 5 4 -3 33 111 -368 53 -184 98 -343 101 -352 5 -16 23 -18 200 -18 181 0
195 1 190 18 -3 9 -16 55 -30 102 -23 83 -80 273 -232 783 l-75 248 166 414
c91 228 165 419 165 425 0 6 -68 10 -194 10 l-193 0 -26 -72 c-14 -40 -75
-221 -136 -402 -62 -182 -114 -332 -116 -335 -3 -2 -5 179 -5 402 l0 407 -175
0 -175 0 0 -1000z"/>
</g>
</svg>
